<svg xmlns="http://www.w3.org/2000/svg" xmlns:xlink="http://www.w3.org/1999/xlink" viewBox="0 0 133.07 133.07"><defs><style>.cls-1{fill:none;}.cls-2,.cls-4{fill:#180f33;}.cls-3{clip-path:url(#clip-path);}.cls-4{stroke:#e3e3e3;stroke-miterlimit:10;stroke-width:6px;}.cls-5{fill:#e3e3e3;}</style><clipPath id="clip-path" transform="translate(-1.65 -1.65)"><circle class="cls-1" cx="68.19" cy="68.19" r="68.19"/></clipPath></defs><g id="Layer_2" data-name="Layer 2"><g id="Layer_2-2" data-name="Layer 2"><rect class="cls-2" width="133.07" height="133.07" rx="37.29"/><g class="cls-3"><path class="cls-4" d="M109.16,55.74h10.89A53.34,53.34,0,0,0,72.51,15c-1.43-.12-2.87-.18-4.33-.18s-2.69.05-4,.15A53.37,53.37,0,0,0,16.23,56.08h9.71v8.36H15c-.1,1.24-.14,2.49-.14,3.75s.05,2.64.15,3.93a53.32,53.32,0,0,0,49.16,49.25q2,.15,4,.15c1.46,0,2.9-.06,4.33-.18a53.33,53.33,0,0,0,48.84-48.92c.11-1.39.17-2.8.17-4.23,0-1.28,0-2.54-.14-3.79,0-.1,0-.2,0-.3h-12.2Z" transform="translate(-1.65 -1.65)"/><path class="cls-5" d="M77.75,72.21l12,3.63A22.23,22.23,0,0,1,86,84.29a16.57,16.57,0,0,1-6.47,5.12,24.18,24.18,0,0,1-9.82,1.72A28.5,28.5,0,0,1,57.85,89a18.73,18.73,0,0,1-7.92-7.4q-3.33-5.3-3.33-13.55,0-11,5.86-16.93T69,45.24q8.39,0,13.19,3.39T89.35,59l-12.11,2.7a10.8,10.8,0,0,0-1.33-3,7.87,7.87,0,0,0-2.82-2.42,8.65,8.65,0,0,0-10.87,2.9Q60.35,62,60.34,68q0,7.38,2.24,10.11a7.69,7.69,0,0,0,6.3,2.74,7.65,7.65,0,0,0,6-2.21A13.61,13.61,0,0,0,77.75,72.21Z" transform="translate(-1.65 -1.65)"/></g></g></g></svg>